<?xml version="1.0" encoding="UTF-8" standalone="no"?>
<svg
   xmlns:dc="http://purl.org/dc/elements/1.1/"
   xmlns:cc="http://creativecommons.org/ns#"
   xmlns:rdf="http://www.w3.org/1999/02/22-rdf-syntax-ns#"
   xmlns:svg="http://www.w3.org/2000/svg"
   xmlns="http://www.w3.org/2000/svg"
   xmlns:sodipodi="http://sodipodi.sourceforge.net/DTD/sodipodi-0.dtd"
   xmlns:inkscape="http://www.inkscape.org/namespaces/inkscape"
   enable-background="new 0 0 512 512"
   height="512px"
   id="Layer_1"
   version="1.1"
   viewBox="0 0 512 512"
   width="512px"
   xml:space="preserve"
   inkscape:version="0.48.2 r9819"
   sodipodi:docname="fclicon.svg"
   inkscape:export-filename="/Users/alcemir/Documents/workspace/fclsuite/vectors/fclicon64.png"
   inkscape:export-xdpi="11.25"
   inkscape:export-ydpi="11.25"><metadata
   id="metadata9"><rdf:RDF><cc:Work
       rdf:about=""><dc:format>image/svg+xml</dc:format><dc:type
         rdf:resource="http://purl.org/dc/dcmitype/StillImage" /><dc:title></dc:title></cc:Work></rdf:RDF></metadata><defs
   id="defs7" /><sodipodi:namedview
   pagecolor="#ffffff"
   bordercolor="#666666"
   borderopacity="1"
   objecttolerance="10"
   gridtolerance="10"
   guidetolerance="10"
   inkscape:pageopacity="0"
   inkscape:pageshadow="2"
   inkscape:window-width="1270"
   inkscape:window-height="694"
   id="namedview5"
   showgrid="false"
   inkscape:zoom="0.52981623"
   inkscape:cx="-43.250851"
   inkscape:cy="172.63355"
   inkscape:window-x="0"
   inkscape:window-y="0"
   inkscape:window-maximized="0"
   inkscape:current-layer="Layer_1" /><path
   d="m 509.49344,234.51749 c 0,0 -9.296,-3.496 -36.19,-5.977 -32.884,-3.04 -42.804,-15.365 -53.742,-30.709 h -0.22 c -1.362,-3.647 -2.821,-7.248 -4.427,-10.776 l 0.127,-0.127 c -3.122,-18.58 -4.812,-34.316 16.292,-59.719 17.25,-20.766 21.365,-29.817997 21.365,-29.817997 -4.048,-10.273001 -13.781,-20.004001 -13.781,-20.004001 0,0 -9.736,-9.734 -20.004,-13.776 0,0 -9.052,4.104 -29.818,21.361 -25.403,21.101998 -41.14,19.406998 -59.719,16.291998 l -0.128,0.126 c -3.524,-1.604997 -7.12,-3.057997 -10.775,-4.426997 v -0.214 c -15.345,-10.934001 -27.669,-20.865001 -30.71,-53.749001 -2.485,-26.880997 -5.976,-36.1889968 -5.976,-36.1889968 -10.129,-4.4049999 -23.889,-4.4049999 -23.889,-4.4049999 0,0 -13.766,0 -23.887,4.4049999 0,0 -3.498,9.3089998 -5.979,36.1889968 -3.041,32.884 -15.372,42.815 -30.709,53.749001 v 0.214 c -3.647,1.369 -7.25,2.821 -10.776,4.420997 l -0.122,-0.12 c -18.579,3.127 -34.316,4.815 -59.719,-16.284998 -20.764,-17.251 -29.828003,-21.363 -29.828003,-21.363 -10.272998,4.053 -19.991998,13.771 -19.991998,13.771 0,0 -9.735,9.743 -13.777,20.009001 0,0 4.099,9.052997 21.362,29.812997 21.100001,25.402 19.389001,41.139 16.284001,59.719 l 0.128,0.127 c -1.607003,3.528 -3.059003,7.129 -4.429003,10.776 h -0.213 c -10.926998,15.35 -20.858998,27.669 -53.740998,30.709 -26.883,2.486 -36.2020004,5.989 -36.2020004,5.989 -4.3939995,10.131 -4.3939995,23.877 -4.3939995,23.877 0,0 0,13.771 4.4049995,23.887 0,0 9.2970004,3.503 36.1850004,5.978 32.883,3.041 42.803,15.38 53.746998,30.71 h 0.214 c 1.37,3.655 2.821,7.251 4.429003,10.776 l -0.128,0.127 c 3.128,18.582 4.815,34.316 -16.284001,59.719 -17.252,20.765 -21.368,29.829 -21.368,29.829 4.059,10.268 13.775,19.993 13.775,19.993 0,0 9.742,9.736 20.009998,13.771 0,0 9.047003,-4.094 29.813003,-21.357 25.402,-21.1 41.145,-19.389 59.718,-16.288 l 0.128,-0.128 c 3.526,1.605 7.129,3.052 10.776,4.427 v 0.22 c 15.349,10.928 27.668,20.859 30.709,53.743 2.485,26.881 5.983,36.2 5.983,36.2 10.135,4.393 23.882,4.393 23.882,4.393 0,0 13.771,0 23.889,-4.405 0,0 3.504,-9.298 5.976,-36.189 3.041,-32.884 15.379,-42.805 30.71,-53.743 v -0.22 c 3.655,-1.375 7.251,-2.821 10.775,-4.427 l 0.128,0.128 c 18.579,-3.122 34.315,-4.812 59.719,16.288 20.767,17.253 29.832,21.369 29.832,21.369 10.267,-4.06 19.99,-13.782 19.99,-13.782 0,0 9.733,-9.736 13.781,-20.004 0,0 -4.104,-9.054 -21.365,-29.818 -21.104,-25.402 -19.403,-41.137 -16.292,-59.719 l -0.127,-0.127 c 1.605,-3.525 3.064,-7.121 4.427,-10.776 h 0.22 c 10.928,-15.341 20.858,-27.669 53.742,-30.71 26.881,-2.485 36.201,-5.978 36.201,-5.978 4.395,-10.127 4.395,-23.887 4.395,-23.887 0,0 -10e-4,-13.771 -4.406,-23.889 z m -251.595,143.616 c -66.125,0 -119.728,-53.602 -119.728,-119.727 0,-66.125 53.603,-119.727 119.728,-119.727 66.124,0 119.727,53.602 119.727,119.727 0,66.125 -53.603,119.727 -119.727,119.727 z"
   id="path3"
   inkscape:connector-curvature="0"
   style="fill:#87aade;stroke-width:4;stroke-miterlimit:4;stroke-dasharray:none;stroke:#3771c8"
   inkscape:export-filename="/Users/alcemir/Documents/workspace/fclsuite/vectors/fclicon16.png"
   inkscape:export-xdpi="2.7906954"
   inkscape:export-ydpi="2.7906954" /><text
   xml:space="preserve"
   style="font-size:287.00497437000001355px;font-style:italic;font-variant:normal;font-weight:bold;font-stretch:normal;text-align:start;line-height:125%;letter-spacing:0px;word-spacing:0px;writing-mode:lr-tb;text-anchor:start;fill:#162d50;fill-opacity:1;stroke:#d5e5ff;font-family:Sans;-inkscape-font-specification:Sans Bold Italic;stroke-width:7.99999993;stroke-miterlimit:4;stroke-dasharray:none"
   x="110.9902"
   y="436.22629"
   id="text2986"
   sodipodi:linespacing="125%"
   transform="scale(0.95798353,1.0438593)"><tspan
     sodipodi:role="line"
     id="tspan2988"
     x="110.9902"
     y="436.22629"
     style="font-size:287.00497437000001355px;font-style:italic;font-variant:normal;font-weight:bold;font-stretch:normal;text-align:start;line-height:125%;writing-mode:lr-tb;text-anchor:start;fill:#162d50;font-family:Sans;-inkscape-font-specification:Sans Bold Italic;stroke:#d5e5ff;stroke-width:7.99999993;stroke-miterlimit:4;stroke-dasharray:none">fcl</tspan></text>

<rect
   style="fill:#d5e5ff;stroke:#00112b;stroke-width:8;stroke-miterlimit:4;stroke-dasharray:none"
   id="rect2998"
   width="119.5955"
   height="52.505341"
   x="173.13034"
   y="151.15446" /><rect
   style="fill:#000000;fill-opacity:0"
   id="rect3000"
   width="122.51246"
   height="70.007118"
   x="20.418743"
   y="170.71529" /><rect
   y="154.07143"
   x="12.697365"
   height="52.505341"
   width="119.5955"
   id="rect3002"
   style="fill:#d5e5ff;stroke:#00112b;stroke-width:8;stroke-miterlimit:4;stroke-dasharray:none" /><rect
   y="60.728603"
   x="100.20625"
   height="52.505341"
   width="119.5955"
   id="rect3004"
   style="fill:#d5e5ff;stroke:#00112b;stroke-width:8;stroke-miterlimit:4;stroke-dasharray:none" /><path
   style="fill:none;stroke:#000000;stroke-width:1px;stroke-linecap:butt;stroke-linejoin:miter;stroke-opacity:1"
   d="m 160.004,86.981274 0,0"
   id="path3774"
   inkscape:connector-type="polyline"
   inkscape:connector-curvature="0"
   inkscape:connection-start="#rect3004"
   inkscape:connection-start-point="d4"
   inkscape:connection-end="#rect3004"
   inkscape:connection-end-point="d4" /><path
   style="fill:#d5e5ff;stroke:#00112b;stroke-width:8;stroke-linecap:butt;stroke-linejoin:miter;stroke-miterlimit:4;stroke-opacity:1;stroke-dasharray:none"
   d="M 97.106989,154.07143 135.39213,113.23394"
   id="path3776"
   inkscape:connector-type="polyline"
   inkscape:connector-curvature="0"
   inkscape:connection-start="#rect3002"
   inkscape:connection-start-point="d4"
   inkscape:connection-end="#rect3004"
   inkscape:connection-end-point="d4" /><path
   style="fill:#d5e5ff;stroke:#00112b;stroke-width:8;stroke-linecap:butt;stroke-linejoin:miter;stroke-miterlimit:4;stroke-opacity:1;stroke-dasharray:none"
   d="M 211.75658,151.15446 181.17551,113.23394"
   id="path3778"
   inkscape:connector-type="polyline"
   inkscape:connector-curvature="0"
   inkscape:connection-start="#rect2998"
   inkscape:connection-start-point="d4"
   inkscape:connection-end="#rect3004"
   inkscape:connection-end-point="d4" /></svg>